<?xml version="1.0" encoding="utf-8"?>
<!-- Generator: Adobe Illustrator 19.1.0, SVG Export Plug-In . SVG Version: 6.00 Build 0)  -->
<svg version="1.1" xmlns="http://www.w3.org/2000/svg" xmlns:xlink="http://www.w3.org/1999/xlink" x="0px" y="0px"
	 viewBox="0 0 1000 790" style="enable-background:new 0 0 1000 790;" xml:space="preserve">
<style type="text/css">
	.st0{fill:#FFFFFF;}
	.st1{fill:#85B4D3;}
	.st2{fill:#CEEBF2;}
	.st3{fill:#AF1010;}
	.st4{fill:#E26F6F;}
	.st5{display:none;}
</style>
<g id="Layer_6">
	<path class="st0" d="M914,788.1H204L71.7,630.4l2.7-20.7l134-80.7l72-21l99,19.6c0,0,227.7,15.6,227.7,16.7s61.5,40.9,61.5,40.9
		l34.3,7.2c0,0,68.3-34.7,89.3-35.7s24,4,24,4l88,130.9L914,788.1z"/>
	<polygon class="st1" points="734,633.4 840,766.1 840,788.1 743,788.1 690.4,667.5 	"/>
	<polygon class="st1" points="140.7,616 642.8,769.1 659.2,754.4 690.4,773.8 688.2,785.1 309,785.1 131.3,633.4 	"/>
	<polygon class="st1" points="174.7,575.7 117.5,616 126.7,632.1 117.5,648.1 109.3,638.4 103.3,648.1 94.7,637.8 86.5,648.1 
		82.7,616 	"/>
	<polygon class="st1" points="131.3,648.1 296,788.1 200,788.1 117.5,673.1 	"/>
	<polygon class="st2" points="811.3,559.1 742.8,632.1 735.3,621.8 688.2,659.2 654.1,611.9 	"/>
	<path class="st2" d="M154,606.6c1.5,0,477.5,144.5,477.5,144.5L578,589.6l-282-71.5l-77,17.5l-65,68.5V606.6z"/>
</g>
<g id="Layer_3">
	<path class="st3" d="M358.1,407.7c0,0-6.7,11.7-4.1,20.7c2.7,9,5.3,44,8.6,48.3s8.1,5.6,8.1,5.6s6.7-1.7,8.8,1.9
		c2.2,3.7,7.2,5.6,3.7,12s-12.9,9-14,13.7s-4.6,25.1-2.2,28.7c2.4,3.6,13.2,17.9,21,20.5c7.8,2.6,24.9,6.5,28.7,6.4
		c3.8,0,13.5,7.7,17.9,7.5c4.3-0.3,42.7-2.2,44-2.3c1.3,0,21.7,2.8,23,3.2c1.3,0.3,22.1,6.5,26.1,5.5c4-1,21.9-11.6,22.9-10.7
		c1,0.9,39.3-11.4,43.7-21.8c4.4-10.4-2-19.6-2-19.6s8-78.8,9.1-81.9c1.1-3.1-2.4-22.1-6.6-25.8c-4.2-3.7-23.4-3.1-24.1-3.3
		c-0.7-0.2-37.7-17.2-64.6-20.2s-55.6-2.2-58.5-5.6C444.7,387.1,361.9,398.4,358.1,407.7z"/>
	<path class="st3" d="M383,528.9c0,0-23.6,9.9-25.8,11.2c-2.2,1.3-20.8,6.1-23.8,5.5s-90.4-8.1-100.9-32.7c0,0-20.8,25.7-24.8,28.4
		c-4,2.6-35.5,25.9-36.1,26.9c-0.7,1-11.8,1.4-11.5-1.3c0.3-2.7,8.7-17.2,8.7-17.2l-4.7,4.8c0,0,0.6-6.8-5.7-9.4
		c-6.3-2.6-11.1,0.1-11.1,0.1s-1.2-12.7-0.1-14.4c1.1-1.7,52.2-65.3,52.2-65.3l86.6,22.5l64.5-3l32.3,23.6L383,528.9z"/>
	<path class="st3" d="M282.5,540.7c0,0-4.9,55.3-1.8,65.3c3.1,10,10.7,26.4,10.7,26.4s10.2,6.1,12,2.4c1.8-3.7-6.3-20.5-5.3-28.2
		c0.9-7.7,2.1-25.9,3.4-25.3c1.3,0.5,4.9,2.5,6.3,9.2c1.5,6.7,4.8,31.2,6,34.6c1.4,4,6.5,9.6,10.7,9.1c4.2-0.5,5.4-2.1,4.7-6.3
		c-0.7-4.2-6.6-74.6-7.5-84.1c-0.9-9.4-5.4-25.1-5.5-26.7c-0.2-1.7-16.7-9.2-16.7-9.2l-15.7,29.9"/>
	<path class="st3" d="M726,455.2c-2.1,16.6-17.8,32.3-21.7,34.4c-4,2.1-103,40.1-110.1,41s-95.3-12.9-95.3-12.9
		s149.7-79.9,154.5-82.7c76.7-44.9,71.9-12.1,73.8-4.1"/>
	<path class="st3" d="M150.8,536.4c0,0-4.1,10.5-3.5,12.5c0.6,2-0.6,22.8,7.4,31.8s8.5,6,8.5,6l-1-17.2c0,0,0.3,6.2,2.5,8.2
		s9.3,5.1,9.8,4.4s-4-12.9-4.8-14.9s0.8-32,0.8-32s-8.5-10.6-11.3-9.3S150.8,536.4,150.8,536.4z"/>
	<path class="st3" d="M562.5,683.1c0,0-8,3.5-5.1,5.5c2.9,2-7.6,4.9-7.6,4.9l-34.1,16.1c0,0-1.2,3.5,4.6,5.3s49.6-5,57.9-16.4
		c8.3-11.4,1.3-17.5-2.2-17.6S562.5,683.1,562.5,683.1z"/>
	<path class="st3" d="M660.9,579.6c0,0,6.1,6.1,11.2,4.6c5.1-1.5,17.5-5,23.7-11.7c6.2-6.6-7.1,7.6-7.6,9.4s-23,84.8-22.7,88.2
		c0.3,3.5-3.1,4.5-3.1,4.5s-11.2,2.8-12.9,2.4c-1.8-0.4-8.5-1.4-8.5-1.4v2.5c0,0,5.3,5.2,10.3,5c5-0.2,26.3,1.3,29.3-4
		s10-20.5,10-20.5s-1.2,1.7-0.8,6s-3,19.8-2.8,22.5s-8.8,6.4-8.8,6.4s-25.5,1.8-35.5-1.9c0,0-5.3,2.3-1.8,5s15.8,9,21.3,9.3
		s37.3,3,41.5-2s12.8-12.2,14-17.2s-2.2-35.5-2.2-35.5L712,548.4L660.9,579.6"/>
	<path class="st3" d="M357.8,411c0,0-8.9-7.4-7.6-9.2s9.8-4,10.8-4.5s36.2-7.1,36.2-7.1s-3.9-12.9-14.1-29.4
		c-10.1-16.3-14-15.9-5.6-29.4c8.3-13.6,21.8,0,21.8,0s0.7,12.4,2.8,18.7s14.2,29,26.2,37c0,0,14.5-7.2,22-5.2s12,5,16,5.2
		s15-2.2,21-2.5s14.1,6.5,14.1,6.5s1.4,0.1,4.6,1.1c3.1,1,23.4-17,23.4-17s13.7-11.9,15.7-14.1c0.1-0.1,5.6-17.3,9.6-22.3
		s6.5-8.9,11.5-7.4c5,1.4,14.3,5.4,14.4,11.4s-1.6,17.3-3.6,20.3s-9.3,5.5-13.8,10c-4.8,4.9-11.8,9.2-11.5,9
		c0,0-12.5,11.3-13.5,13.5s6.5,5.8,8.5,4.6c2-1.1,14,4,14,4s12.1,6.1,12.8,6.9s17.5,0,17.5,0s17.3,12.2,17.8,16.8s1.6,11.7,1.6,11.7
		l7.4-8.1l4,0.5l3-7.8l7,5l6-6.9l2.2,1.7l4.3-5.5v3.5l5-6.3l2.5,3.8l2.6-6.1l3.1,6.9l5-8.4l8.8,4.4c0,0,18.5-13,24.5-12.1
		c6,0.9,10.5,7.7,10.5,7.7l-3.5,21.9l-127.3,37.8l-212-39.3L357.8,411z"/>
</g>
<g id="Layer_2">
	<path class="st4" d="M557.5,559.6c0,0,21.4,21.3,39.4,25.7c18,4.4,83.2-4.5,86.7-7s15.4-7.3,15.4-7.3s-4.8-2.7-11.4,19.3
		c-6.6,22.1-18.7,73.4-18.7,73.4l0.6,9.3c0,0,4.3,5.4,6.3,4.9c2-0.5,46.9-75.6,48.1-82.6c1.2-7,9.9-42.1,9.9-48.6
		s-18.1-15.4-20.4-16.1s-86.2,6.4-89.7,6.9s-38.4,19-40.9,16.8s-9.8-7.4-12.1-7.4C568.7,547,555.7,554.9,557.5,559.6z"/>
	<path class="st4" d="M667.6,673.1c1,3.2,1.3,5.2-2.2,6.2s-14.1,2.1-18.8,1.4c-4.7-0.7-4.2-3.6-4.2-3.6s8.8,2.6,10.5,1.1
		C654.7,676.6,667.6,673.1,667.6,673.1z"/>
	<path class="st4" d="M357.8,532.1c0,0-7,5.8-14.2,7.1s-98.2-14.9-103.9-24.5c-12.3-20.6-11-22.1-11-22.1s0.5,16.9-9.8,26.6
		c-18.1,17.2-52.2,44.7-52.2,44.7l5.1,18c0,0-7.6-7.9-8.3-10.7c-0.8-2.7-0.1-11.2-0.1-11.2s49.9-75,57.4-76.4
		c7.5-1.4,16.2-4.4,16.2-4.4s102.4,19.7,109.2,21.4S357.8,532.1,357.8,532.1z"/>
	<path class="st4" d="M484.3,502.4c0,0-5.8,2.8-4.6,9.3c1.2,6.5,2,13.7,4.8,14.5c2.8,0.7,10.8,2.4,12.5,2.3s23-3.5,25.7-4.6
		c2.7-1,14.5,0.4,16,1.1c1.5,0.7,13,3.7,15.5,4.6c2.5,1,40.7-2.3,44.2-5.1c3.5-2.8,91.7-35.5,95.2-38.2s11.7-6.3,13.9-7.8
		c2.2-1.5-0.7,6.3-11.1-7.4c-10.4-13.7-22.3-34.8-16.8-40.6s16.4-9.1,20.2-10.2c3.7-1,5-4.5,1.7-6.3c-3.3-1.7-16.2,1.4-18.5,1.9
		c-2.2,0.5-9.9,7.3-9.9,7.3s-3.2,0.3-4-1.5c-0.8-1.7-6.8-4.4-7.3-2.7c-0.5,1.8-4.5,5.8-4.5,5.8l-2.8-4l-2.7,4.8l-4.5-2.2l-4.2,6.5
		l0.2-4.5l-5,5.3l-3-3l-4.7,5.5l-3.8-3.7l-4.2,8.3l-5.5-1.2l-3,3.8l-4.3-0.7l-3,3.8l-4.5-1.2l-2.4,6.8c0,0-8-2.4-8-1.2
		c0,1.2-3.4,7.5-3.4,7.5l-2-3.2l-5.5,4.5c0,0-40.3,24.6-42.3,28.1C539,484.7,497.8,490.5,484.3,502.4z"/>
	<g>
		<path class="st4" d="M374.2,464.4c0,0,3.8-0.9,5.8-0.9c8.5-0.1,18.6-2.1,21.7,2.5c3,4.6,6.4,8.3,6.8,15.6s-1.3,11.7-3.9,15.4
			c-2.6,3.7-11.4,13.1-12.8,14.4c-1.4,1.3-9.6,5.1-11.9,5.1c-2.3,0-4.8-5.3-4.8-5.3l0-5l1.6-2.3c0,0,4,2.6,5.3,2
			c1.3-0.7,12.6-14.8,12.5-18.1c0-3.3,0.2-8.3-3-10.6s-7.8-3.3-9.2-2.9c-1.3,0.3-7.6,4.1-7.8,5.7c-0.2,1.7-6.2,3-6.2,3l-1.7-9
			c0,0,3.1-6,4.3-6.7C371.7,466.7,374.2,464.4,374.2,464.4z"/>
		<path class="st4" d="M415.7,512.2c0,0,1.5-3.3,2.7-2.5c1.3,0.7,6.8,6.4,12.3,8.2c5.5,1.7,17.3,1.9,19-0.1c1.7-2,3-3.6,4-1.7
			c1,1.9,3.4,20.9,6.2,27.9c2.8,7,12.2,22.9,15.2,23.4c3,0.5,0,1.5,0,1.5s-41.5,2.8-50.3-2.9C416,560.2,414.7,518.2,415.7,512.2z"/>
		<path class="st4" d="M478.1,504c0,0-8.7,2.3-7.1,16.3c1.6,14,2.9,19.5,8.7,23.2c5.8,3.7,28-4.5,28-4.5l24.2-11.1
			c0,0,0.7-2-2.8-2.2c-3.5-0.2-22.3,0.9-27.6,5s-18.3,3.6-20.3,0.7c-2-3-6.7-14.7-5.1-19.2C477.6,507.5,478.1,504,478.1,504z"/>
		<path class="st4" d="M412.3,496c0,0,4.3,0.7,4,4.2c-0.2,3.5-5.4,18.7-5.8,20.7s1.3,29.2,5.2,37.9c3.9,8.7-23.2-1.9-23.2-1.9
			s-13.3-5.9-15.8-11.6c-2.5-5.7-5.7-22-5.9-25.2c-0.3-3.2,2.5-4.5,2.5-4.5s4.3,3.2,5.5,3.7c1.3,0.5,9.7-0.6,11-1.3
			s15.1-16.9,16.1-17.4c1-0.5,4-4.5,4-4.5L412.3,496z"/>
		<path class="st4" d="M475.9,499.5c0,0-6.1-5.2-8.9-3.9s-8.7,6.8-9.4,9.8c-0.7,3-1.4,14-1.4,14s10.1,43.9,22.1,47.8
			c12,3.9,23.3-0.2,23.3-0.2s4.7-19-0.2-20.5c-4.8-1.5-11.3,2.1-14.8,1.6c-3.5-0.5-13.9-6.1-15.8-10.4c-1.9-4.2-4.8-26.2-4.8-28.6
			c0-2.4,8.7-6.7,8.7-6.7L475.9,499.5z"/>
		<path class="st4" d="M489.3,494.1c0,0-6,3-7.7,3.1c-1.7,0-7.8-0.9-7.8-4.2c0-3.2-1.9-9.5,2-11c3.9-1.5,11.4-3.1,15.6-3.4
			c4.2-0.3,13.8,2.6,16.5,3.9c2.8,1.2,8.5,5.2,8.5,5.2l-15.4,4.6l-14.6-3.3L489.3,494.1z"/>
		<path class="st4" d="M383.8,332.9c3.8-1.3,6.5-2.5,8.4-0.1c1.9,2.5,5.4,4.7,5.2,11c-0.2,6.3,3.9,13.5,4.6,15.2
			c0.8,1.7,7.6,12.4,8.1,13.7c0.5,1.2,10.3,12.4,14.4,14.6c4,2.2,1.6,8.5,1.6,8.5s-10.2,3.3-12.2,6.6c-2,3.3-3,1.3-4.2,0
			c-1.3-1.2-13.9-21.1-14.7-23.9c-0.8-2.7-8.9-20.7-10.9-22.4c-2-1.7-6.6-10-6.6-10S379.5,334.4,383.8,332.9z"/>
		<path class="st4" d="M507.8,396.7c0,0,10.4-9.8,12.7-10.1s10.2-9.8,10.2-9.8s15.6-13.1,16.8-16.1c1.2-3,6.8-21.8,11.6-22.6
			c4.7-0.8,10-1.6,12.5,1.4c2.5,3,1.9,16.5,0.2,20.2c-1.7,3.8-6.4,8.5-10.2,10.6s-20.9,18.2-20.9,18.2s-9,8.8-9.8,11.3
			c-0.8,2.5,1.6,5.5,0,6c-1.6,0.5-6.5,4.3-9.8,2.6c-3.3-1.7-5.1-8.5-5.3-10.7C515.5,395.4,507.8,396.7,507.8,396.7z"/>
		<path class="st4" d="M533.4,574.5c0,0-26.2,4-28.5-3.8c-2.4-7.7,6.5-30.1,6.5-30.1s19.9-15.7,26.4-12.6c6.5,3.1,25.8,2.5,27.5,3.3
			c1.8,0.8,2.8,4.5,2.1,7s-3.7,5.6-4.5,6.3c-0.7,0.8-4.8-6.2-4.8-6.2l1.3,7.3c0,0-2.5-5.5-5.5-5.2c-3,0.3-5.9,10.9-5.9,10.9
			s-2.3-13-10.1-11.2c-7.7,1.8-13.2,10.1-13.4,13.1c-0.2,3-0.9,16,3.6,18c4.5,2,5.8,1,5.8,1L533.4,574.5z"/>
		<path class="st4" d="M358.1,407.7c0,0,0.7-3.4,3.2-4.5c2.5-1,11-1.7,16.5-2c5.5-0.3,21-4.3,22.5-4.3c1.5,0,3.7,0,3.7,0l-3.3-4.2
			c0,0-23.7,3.9-26.5,4.7c-2.7,0.8-8.2,3.7-13,2.9c-4.8-0.8-7.5,2.2-7.5,2.2L358.1,407.7z"/>
		<path class="st4" d="M429,389.5l4.2,3.3c0,0,18.3-3.7,22-2c3.8,1.7,11.6,3.9,13.3,3.6c1.7-0.3,13,0.4,15.8,0.1
			c2.7-0.3,6.3,2.9,6.3,2.9l14.5-0.1l4-4l-12,0.1c0,0-10-3.9-13.3-4.3c-3.3-0.4-8.5,3.9-12.5,3.2s-12.3-2-14.8-3
			c-2.5-1.1-15.8-4.3-25,0.2S429,389.5,429,389.5z"/>
		<path class="st4" d="M534.9,401.5c0,0-2.6,1.3,2.5,4.9c5,3.6,38.6,11.1,38.6,11.1s11,0.7,14.3,2.1s8.8,10.9,10.1,14.4
			c1.3,3.5,2.3,8.2,2.3,8.2l4.7-3.3l-10.6-19.4c0,0-4.8-4-6-3.7c-1.2,0.3-18.3,0.1-19.9-1.4C569.2,413,538.9,397.2,534.9,401.5z"/>
		<g>
			<path class="st4" d="M359.1,427.9c-0.7-0.3-1.3-0.6-1.9-1.1c-0.5-0.5-1-1.3-1-2.1c0-0.8,0.2-1.6,0.6-2.3c0.2-0.3,0.4-0.7,0.6-1
				c0.2-0.3,0.5-0.6,0.7-0.9c0.5-0.5,1.1-1.1,1.7-1.5c0.3-0.2,0.6-0.5,0.9-0.7l0.9-0.6c1.2-0.9,2.5-1.7,3.8-2.4
				c0.6-0.4,1.3-0.7,2-1.1l2-0.9c1.4-0.6,2.8-1.1,4.2-1.6c1.4-0.5,2.8-0.9,4.3-1.3c1.4-0.4,2.9-0.8,4.3-1.1c1.5-0.3,2.9-0.5,4.4-0.7
				c1.5-0.2,3-0.4,4.4-0.5c2.9-0.3,5.9-0.6,8.9-0.6c1.5-0.1,3-0.1,4.5,0c0.8,0,1.5,0.1,2.4,0.2c0.4,0,0.8,0.1,1.2,0.2
				c0.4,0.1,0.9,0.3,1.4,0.4c0.3,0.1,0.6,0.3,0.9,0.5l0.1,0.1l0.1,0l0,0l0.1,0.1l0.1,0.1l0.2,0.2c0.3,0.2,0.7,0.7,1,1
				c0.6,0.7,1,1.4,1.4,2c0.8,1.4,1.5,2.8,2.1,4.3l-3.2-0.8c0.7-0.6,1.4-1.2,2.1-1.7c0.7-0.5,1.5-1.1,2.2-1.6c1.5-1,3.1-2,4.7-2.8
				l1.3-0.6l1.3-0.6c0.9-0.3,1.8-0.7,2.8-0.9c0.5-0.1,1-0.2,1.5-0.3c0.5-0.1,0.9-0.1,1.3-0.2l2.6-0.3c1.7-0.2,3.5-0.4,5.3-0.5
				c1.8-0.1,3.7-0.2,5.8,0.3c0.5,0.1,1.1,0.3,1.7,0.5c0.3,0.2,0.6,0.3,0.9,0.5c0.3,0.2,0.6,0.5,0.8,0.7c0.2,0.2,0.3,0.3,0.5,0.5
				c0.2,0.2,0.4,0.5,0.5,0.7c0.3,0.4,0.5,0.9,0.8,1.3c0.5,0.9,0.8,1.7,1.2,2.6c0.3,0.9,0.6,1.7,0.9,2.7l-3.7-0.5
				c0.6-1.1,1.3-1.9,2-2.8c0.7-0.9,1.5-1.7,2.4-2.5c0.9-0.8,1.9-1.4,3-2c1.2-0.5,2.4-0.9,3.8-1c0.5,0,1.2,0,1.7,0
				c0.6,0,1.1,0.1,1.6,0.1c1.1,0.1,2.1,0.2,3.2,0.3c2.1,0.2,4.2,0.6,6.3,0.9c2.1,0.4,4.2,0.8,6.2,1.3c1,0.3,2.1,0.5,3.2,0.9
				c0.5,0.2,1.1,0.4,1.7,0.7c0.1,0.1,0.3,0.1,0.5,0.2c0.1,0.1,0.3,0.2,0.5,0.3c0.2,0.1,0.4,0.3,0.6,0.6l0,0c0,0-0.2-0.2-0.1-0.1l0,0
				l0,0l0.1,0.1l0.1,0.1l0.1,0.1c0,0,0,0,0,0c0,0,0,0,0,0c0,0,0,0,0.1,0.1c0.1,0.1,0.2,0.1,0.4,0.2c0.4,0.2,1.1,0.3,2,1
				c0.8,0.7,1.3,1.7,1.4,2.4c0.1,0.4,0.1,0.7,0.2,1.1l0,0.9l0,0.9l0,0.8l-0.1,1.6l-0.2,3.1l-3.6-1.4c1.6-2,3.3-3.9,5.1-5.7
				c1.8-1.8,3.7-3.6,6-5.1c0.6-0.4,1.2-0.7,2-1c0.7-0.3,1.6-0.5,2.7-0.4c0.1,0,0.3,0,0.4,0.1l0.2,0l0.5,0.1l1,0.2l1.8,0.4l7.2,1.8
				c9.6,2.4,19.2,4.9,28.8,7.7c4.8,1.4,9.5,2.8,14.3,4.3l7.1,2.3c2.4,0.8,4.6,1.8,6.9,2.8c2.3,1,4.6,2,6.8,3.1
				c2.2,1.1,4.5,2.3,6.6,3.8c1.1,0.8,2,1.6,2.9,2.4l2.8,2.5l2.8,2.5l1.3,1.3c0.2,0.2,0.4,0.4,0.7,0.7c0.1,0.1,0.2,0.2,0.3,0.3
				c0.1,0.1,0.1,0.1,0.1,0.2c0,0,0,0.1,0.1,0.1c0,0.1-0.1,0-0.1,0c0,0,0.1,0,0.1,0c0,0,0-0.1-0.1-0.1c-0.1-0.1-0.1-0.1-0.2-0.2
				c-0.1-0.1-0.2-0.2-0.4-0.3c-0.2-0.2-0.5-0.4-0.7-0.6l-1.5-1.1l-3-2.1l-3.1-2.1c-1-0.7-2.1-1.4-3.1-2c-2.1-1.2-4.4-2.1-6.6-2.9
				c-2.3-0.9-4.6-1.6-7-2.4c-2.3-0.7-4.7-1.4-7.1-2.1c-2.3-0.8-4.7-1.6-7-2.3c-4.7-1.5-9.4-2.9-14.2-4.2c-9.5-2.7-19-5.3-28.6-7.6
				l-7.2-1.7c-1.2-0.3-2.5-0.6-3.4-0.7c-0.1,0-0.5,0-0.9,0.2c-0.4,0.2-0.9,0.4-1.3,0.7c-1.8,1.2-3.6,2.8-5.3,4.5
				c-1.7,1.7-3.3,3.5-4.8,5.4l-3.9,4.8l0.3-6.2l0.2-3.1l0.1-1.6l0-0.8l0-0.7l0-0.6c0-0.2,0-0.4-0.1-0.5c-0.1-0.3-0.1-0.3-0.1-0.3
				c0,0-0.2-0.1-0.8-0.3c-0.3-0.1-0.6-0.2-1-0.4c-0.2-0.1-0.3-0.2-0.6-0.4l-0.3-0.2l-0.1-0.1l-0.1-0.1l-0.3-0.4
				c0,0.1,0.1,0.1,0.1,0.1c0,0-0.1,0-0.1-0.1c-0.1,0-0.1-0.1-0.2-0.1c-0.3-0.2-0.8-0.3-1.2-0.5c-0.9-0.3-1.9-0.6-2.8-0.8
				c-2-0.5-4-0.9-6-1.2c-2-0.3-4-0.7-6.1-0.9c-1-0.1-2-0.2-3-0.3c-0.5,0-1-0.1-1.5-0.1c-0.5,0-0.9,0-1.4,0c-0.7,0.1-1.5,0.2-2.2,0.6
				c-0.7,0.4-1.5,0.9-2.1,1.4c-0.7,0.6-1.3,1.3-1.9,2c-0.6,0.7-1.2,1.5-1.6,2.2l-2.4,4.1l-1.2-4.6c-0.2-0.7-0.5-1.5-0.7-2.3
				c-0.3-0.8-0.6-1.5-1-2.2c-0.2-0.3-0.4-0.7-0.6-1c-0.1-0.2-0.2-0.3-0.3-0.4c0-0.1-0.3-0.3-0.4-0.5c-0.1-0.1-0.6-0.4-1.2-0.5
				c-1.3-0.3-3-0.3-4.7-0.2c-1.7,0.1-3.4,0.3-5.1,0.5l-2.6,0.3c-0.4,0.1-0.9,0.1-1.3,0.2c-0.4,0.1-0.7,0.1-1.1,0.2
				c-0.7,0.2-1.5,0.4-2.2,0.7l-1.1,0.5l-1.1,0.5c-1.5,0.8-2.9,1.6-4.3,2.6c-0.7,0.5-1.4,1-2,1.5c-0.7,0.5-1.3,1-1.9,1.6l-2.2,1.9
				l-1-2.7c-0.4-1.2-1-2.5-1.7-3.6c-0.3-0.6-0.7-1.1-1.1-1.5c-0.2-0.3-0.3-0.3-0.5-0.6l-0.2-0.2l-0.1,0c0,0-0.1,0.2,0.1,0.2h0h0h0
				c0,0-0.1-0.1-0.1-0.2c-0.2-0.1-0.4-0.2-0.7-0.3c-0.3,0-0.6-0.2-0.9-0.2c-0.6-0.1-1.3-0.1-2-0.2c-1.4,0-2.8-0.1-4.2,0
				c-2.8,0.1-5.7,0.3-8.6,0.6c-1.4,0.2-2.8,0.3-4.3,0.5c-1.4,0.2-2.9,0.5-4.3,0.7c-2.8,0.4-5.7,0.8-8.4,1.5
				c-1.4,0.3-2.8,0.7-4.1,1.1c-1.4,0.4-2.7,0.9-4,1.5c-1.3,0.6-2.6,1.1-3.9,1.8l-1,0.5c-0.3,0.2-0.6,0.4-0.9,0.6
				c-0.6,0.4-1.2,0.8-1.7,1.2c-1,0.9-2.1,2-2.2,3.3c-0.1,0.7,0.2,1.3,0.6,1.9C357.9,427.1,358.5,427.5,359.1,427.9z"/>
		</g>
		<g>
			<path class="st4" d="M434.3,424.3c-0.3-0.5-0.7-0.9-1.2-1.2c-0.4-0.3-0.9-0.6-1.4-0.6c-0.2-0.1-0.5,0-0.7,0
				c-0.2,0-0.4,0.2-0.7,0.3l-0.6,0.4c-0.2,0.2-0.4,0.4-0.5,0.6c-0.2,0.2-0.3,0.4-0.5,0.6l-0.4,0.7c-0.3,0.5-0.5,1-0.7,1.5
				c-0.2,0.5-0.4,1-0.6,1.5c-0.2,0.5-0.4,1-0.6,1.6c-0.4,1-0.7,2.1-1,3.3c-0.4,1.1-0.7,2.3-1.1,3.3c-0.5,1.1-1,2.1-1.5,3.2
				c-0.2,0.5-0.5,1.1-0.8,1.7c-0.2,0.3-0.3,0.5-0.6,1c0,0-0.1,0.2-0.2,0.2l-0.1,0.1c-0.1,0.1-0.1,0.1-0.2,0.2
				c-0.1,0.1-0.1,0.1-0.2,0.1c0,0-0.2,0.1-0.3,0.2c-0.1,0.1-0.3,0.1-0.5,0.1c-0.2,0-0.3,0-0.5,0c-0.3,0-0.6-0.1-0.9-0.3
				c-0.1-0.1-0.3-0.2-0.4-0.3c-0.1-0.1-0.2-0.3-0.2-0.3c-0.1-0.1-0.1-0.2-0.2-0.3c0-0.1-0.1-0.2-0.1-0.3l0-0.2l0-0.1l0-0.2
				c0-0.2,0-0.2,0-0.3l0-0.2c0-0.4,0.1-0.5,0.1-0.7l1.8-7.7l2,7.7c1.2,4.5,2.3,9,3.4,13.6l0.8,3.4l0.4,1.7l0.2,0.9l0.2,0.8l0.2,0.8
				l0.2,0.7c0.2,0.5,0.3,1,0.5,1.4c0.4,1,1,1.9,1.5,3.3c0.3,0.7,0.4,1.5,0.5,2.3c0,0.8-0.1,1.6-0.4,2.4c-0.4,1.4-1.2,2.6-1.8,3.6
				c-1.2,2-2.5,4-3.9,5.9c-0.7,1-1.4,2-2.3,2.9c-0.4,0.5-0.9,1-1.5,1.4c-0.6,0.4-1.2,0.9-2.2,1.2c-0.2,0.1-0.5,0.1-0.8,0.2l-0.2-0.1
				l-0.1-0.1h-0.1h-0.2l-0.9,0.1c-0.6,0-1.2,0-1.8,0c-1.2-0.1-2.4-0.2-3.6-0.3l-0.4,0l-0.3-0.2c-1.6-0.9-2.9-1.8-4.2-2.8
				c-1.3-1-2.5-2.1-3.7-3.3c-2.3-2.4-4.3-5.1-5.8-8.2c-1.5-3-2.4-6.4-2.6-9.8c-0.1-1.7-0.1-3.4,0.2-5.1l0.2-1.3l0.2-1.2l0.1-0.6
				l0.2-0.6l0.3-1.1c0.2-0.8,0.4-1.5,0.6-2.3l0.7-2.3c0.5-1.6,1.1-3,1.6-4.6c0.6-1.5,1.2-3,1.9-4.4c0.3-0.7,0.6-1.5,1-2.2
				c0.3-0.7,0.8-1.4,1.2-2.1c0.9-1.4,1.7-2.7,2.7-4c0.9-1.3,1.9-2.6,2.8-3.9c1-1.3,2-2.5,3-3.7c1-1.2,2.1-2.4,3.2-3.5
				c-0.8,1.3-1.6,2.7-2.4,4.1c-0.8,1.4-1.5,2.8-2.2,4.2c-0.7,1.4-1.4,2.8-2,4.2c-0.6,1.4-1.2,2.9-1.8,4.3c-0.5,1.5-1.3,2.8-1.9,4.2
				c-0.7,1.4-1.2,2.8-1.8,4.3c-0.5,1.4-1.1,2.9-1.5,4.3l-0.7,2.2c-0.2,0.7-0.4,1.5-0.6,2.3l-0.3,1.1l-0.1,0.5l-0.1,0.5l-0.2,1.1
				l-0.1,1.1c-0.2,1.4-0.2,2.9-0.1,4.3c0.1,1.4,0.3,2.9,0.7,4.3c0.4,1.4,0.9,2.8,1.5,4.1c1.3,2.6,3,5,5.1,7.1c1,1.1,2.1,2.1,3.3,3
				c1.1,0.9,2.4,1.8,3.6,2.5l-0.7-0.2c1.1,0.1,2.3,0.2,3.4,0.3c0.6,0,1.1-0.1,1.7-0.1l0.8-0.1h0.2h0.1c0,0-0.2,0.3-0.2,0.3v0
				c0,0,0.1,0,0.1,0c0.1,0,0.5-0.3,0.8-0.5c0.3-0.3,0.7-0.6,1.1-1c0.7-0.8,1.4-1.6,2-2.5c1.3-1.8,2.5-3.8,3.7-5.7
				c0.6-1,1.1-1.8,1.3-2.6c0.3-0.8,0.2-1.3-0.1-2.1c-0.3-0.8-0.9-1.9-1.4-3.1c-0.3-0.6-0.5-1.2-0.7-1.8l-0.3-1l-0.2-0.9l-0.7-3.4
				l-0.8-3.4c-1.1-4.5-2.2-9-3.4-13.4l3.9,0c0,0,0,0.2,0,0.1l0-0.1l0-0.2c0-0.1,0-0.1,0-0.2l0,0l0-0.1c0-0.1-0.1-0.2-0.1-0.3
				c0-0.1-0.1-0.2-0.2-0.3c0,0-0.1-0.2-0.2-0.3c-0.1-0.1-0.2-0.2-0.4-0.3c-0.3-0.2-0.6-0.3-0.9-0.3c-0.2,0-0.3,0-0.5,0
				c-0.2,0-0.3,0.1-0.5,0.1c-0.1,0.1-0.3,0.2-0.3,0.2c-0.1,0-0.1,0.1-0.1,0.1c0,0-0.1,0.1-0.1,0.1l0,0c0,0-0.1,0.1-0.1,0.1
				c0,0,0.2-0.3,0.3-0.5c0.2-0.5,0.5-1,0.7-1.5c0.5-1,0.9-2.1,1.3-3.2c0.4-1.1,1-2.1,1.6-3.1c0.5-1,1.1-2.1,1.7-3.1
				c0.3-0.5,0.6-1.1,0.9-1.6c0.3-0.5,0.6-1,1-1.5c0.4-0.5,0.8-1,1.2-1.4l0.7-0.7c0.2-0.2,0.4-0.4,0.7-0.6c0.3-0.2,0.5-0.4,0.8-0.6
				c0.3-0.1,0.6-0.3,0.9-0.4c0.3-0.1,0.7-0.1,1-0.1c0.3,0,0.7,0,1,0.2c0.6,0.2,1.1,0.7,1.5,1.1C433.8,423.2,434,423.7,434.3,424.3z"
				/>
		</g>
		<g>
			<path class="st4" d="M451.4,422.4c0,0,0.6,0.1,1.7,0.7c1,0.6,2.6,1.6,3.9,3.5c0.7,0.9,1.2,2.2,1.6,3.5c0.2,0.7,0.3,1.4,0.4,2.2
				c0,0.8,0.2,1.6,0.1,2.4c0,1.6-0.3,3.4-0.7,5.1c-0.1,0.4-0.3,0.9-0.4,1.3l-0.2,0.7l-0.1,0.3l-0.1,0.2l0,0.1l-0.1,0.1
				c-0.4,0.8-0.8,1.6-1.2,2.4c-0.5,0.9-1,1.8-1.7,2.7c-0.6,0.8-1.2,1.7-2,2.5c-1.4,1.6-3.2,3.1-4.8,4.4c-1.7,1.3-3.1,2.5-3.7,4
				c-0.7,1.5-0.6,3.5-0.3,5.6c0.3,2,1,4.5,1.6,6.6c0.7,2.2,1.4,4.4,2.4,6.4c0.5,1,1.1,1.9,1.7,2.8c0.7,0.8,1.4,1.5,2.2,2
				c1.6,1,3.7,1.2,6.1,1.1c4.7-0.1,9.6-0.8,14-2.2c2.2-0.7,4.3-1.5,6.2-2.6c1.8-1.1,3.3-2.5,4.1-4.1c0.2-0.4,0.4-0.8,0.5-1.2
				c0.1-0.2,0.1-0.4,0.1-0.6l0.1-0.3l0-0.4c0.1-1.1,0.2-2.2,0.3-3.3c0.2-2.2,0.4-4.4,0.6-6.5c0.3-4.2,0.7-8.2,1-11.9
				c0.1-0.9,0.2-1.8,0.2-2.7c0-0.9,0.1-1.7,0.3-2.6c0.3-1.7,0.6-3.3,0.8-4.7c0.5-3,1-5.6,1.3-7.7c0.4-2.1,0.7-3.8,0.9-5
				c0.2-1.1,0.3-1.8,0.3-1.8s0,0.6,0.1,1.8c0,1.2,0.1,2.9,0.2,5c0.1,2.2,0.1,4.8,0.2,7.8c0,1.5,0.1,3.1,0.1,4.8c0,0.8,0,1.7-0.1,2.6
				c-0.1,0.9-0.2,1.8-0.2,2.7c-0.3,3.7-0.6,7.7-1,11.9c-0.2,2.1-0.4,4.3-0.6,6.5c-0.1,1.1-0.2,2.2-0.3,3.4l0,0.4l-0.1,0.5
				c-0.1,0.3-0.1,0.7-0.2,1c-0.2,0.7-0.4,1.3-0.7,2c-1.3,2.6-3.4,4.4-5.6,5.8c-2.2,1.3-4.6,2.3-7.1,3c-4.9,1.4-9.9,2.2-15,2.3
				c-2.5,0.1-5.6-0.1-8.2-1.7c-1.3-0.8-2.4-1.8-3.3-2.9c-0.8-1.1-1.6-2.3-2.1-3.5c-1.1-2.4-1.9-4.7-2.6-7.1
				c-0.3-1.2-0.7-2.4-0.9-3.5c-0.1-0.6-0.3-1.1-0.4-1.7c-0.1-0.6-0.2-1.2-0.3-1.8c-0.1-0.6-0.2-1.2-0.2-1.9
				c-0.1-0.6-0.1-1.3-0.1-1.9c0.1-0.7,0-1.3,0.2-2c0.2-0.7,0.3-1.4,0.6-2c0.1-0.3,0.3-0.7,0.4-1l0.6-0.9c0.4-0.6,0.8-1,1.3-1.5
				c0.4-0.5,0.9-0.8,1.3-1.2c0.4-0.3,0.9-0.7,1.3-1c1.7-1.3,3.1-2.5,4.3-3.9c0.6-0.7,1.2-1.4,1.7-2.1c0.5-0.7,0.9-1.4,1.3-2.1
				c0.4-0.8,0.8-1.6,1.2-2.4l0.1-0.2l0-0.1c-0.1,0.2,0,0,0,0l0,0l0.1-0.3l0.2-0.6c0.1-0.4,0.3-0.7,0.5-1.1c0.6-1.4,1.1-2.8,1.4-4.2
				c0.6-2.7,0.4-5.2-0.4-7c-0.8-1.9-1.9-3.1-2.8-3.9C451.9,422.7,451.4,422.4,451.4,422.4z"/>
		</g>
		<g>
			<path class="st4" d="M498.1,418.6c0,0,0.1,0,0.3,0c0.2,0,0.5,0,0.8,0.1c0.7,0.2,1.8,0.5,3,1.2c1.2,0.7,2.7,1.5,4.1,3
				c0.4,0.4,0.7,0.8,1.1,1.3c0.2,0.2,0.4,0.6,0.5,0.9c0.1,0.1,0.2,0.4,0.2,0.6l0.1,0.3l0,0.2c-0.1-0.5,0-0.1,0-0.2l0,0l0,0l0.2,0.4
				c0,0.1,0,0.1,0.1,0.1c0,0,0,0,0,0c0,0,0,0,0,0l0.1,0.2c0.2,0.3,0.5,0.6,0.9,0.9c1.5,1.3,3.5,2.5,5.7,3.6c1.1,0.5,2.3,1.1,3.4,1.5
				l0.1,0l0.1,0l0,0c-0.2-0.1,0,0-0.1,0l0.2,0.1l0.5,0.1c0.3,0.1,0.5,0.1,0.8,0.1c0.6,0.1,1.2,0.2,1.9,0.2c2.7,0.2,5.6,0.2,8.5,0.2
				c3,0,6-0.1,9-0.1c0.8,0,1.5,0,2.3,0l0.6,0l0.6,0c0.4,0,0.7,0,1.2,0.1c1.7,0.1,3.1,0.4,4.7,0.6c3,0.6,5.9,1.3,8.7,2.2
				c2.8,0.9,5.4,1.9,7.8,3.1c1.2,0.6,2.4,1.2,3.5,1.9c0.3,0.2,0.6,0.3,0.8,0.5c0.3,0.2,0.5,0.4,0.8,0.6c0.2,0.2,0.5,0.3,0.7,0.6
				c0.3,0.2,0.5,0.5,0.8,0.7c0.5,0.4,0.9,0.9,1.3,1.3c0.5,0.4,0.8,0.9,1.1,1.4c0.6,1,1,1.9,1.4,2.8c0.7,1.8,1.2,3.4,1.4,4.8
				c0.3,1.3,0.4,2.4,0.5,3.1c0.1,0.7,0.1,1.1,0.1,1.1s-0.2-0.4-0.5-1c-0.3-0.6-0.8-1.6-1.5-2.7c-0.7-1.1-1.6-2.4-2.7-3.8
				c-0.6-0.7-1.2-1.4-1.9-2c-0.4-0.3-0.6-0.7-1-1.1c-0.3-0.4-0.7-0.8-1-1c-1.4-1.4-3.4-2.5-5.6-3.6c-2.2-1.1-4.7-2-7.3-2.8
				c-2.6-0.8-5.4-1.5-8.2-2c-1.4-0.2-2.9-0.5-4.2-0.6c-0.3,0-0.7-0.1-1.1-0.1l-0.5,0l-0.5,0c-0.7,0-1.5,0-2.2,0c-3,0-6,0.1-9,0.1
				c-3,0-5.9,0.1-8.9-0.2c-0.7,0-1.5-0.1-2.3-0.3c-0.4-0.1-0.9-0.2-1.2-0.2l-0.5-0.1l-0.2-0.1l-0.2-0.1l-0.1,0l-0.1,0
				c-1.4-0.5-2.6-1.1-3.9-1.6c-2.4-1.2-4.6-2.5-6.6-4.2c-0.5-0.4-1-0.9-1.4-1.4l-0.3-0.4c-0.1-0.1-0.3-0.4-0.4-0.6
				c-0.1-0.1-0.1-0.2-0.2-0.4c0-0.1-0.1-0.3-0.1-0.3l-0.1-0.4l0,0l0,0l-0.1-0.3l0,0l0-0.1c0,0,0-0.1,0-0.2c0-0.2,0-0.3-0.1-0.5
				c-0.1-0.3-0.3-0.7-0.5-1.1c-0.8-1.4-1.8-2.7-2.6-3.6c-0.9-0.9-1.6-1.6-2.2-2c-0.3-0.2-0.5-0.3-0.7-0.4
				C498.2,418.6,498.1,418.6,498.1,418.6z"/>
		</g>
	</g>
	<g>
		<path class="st3" d="M582.4,543.7c0,0,39.1-19.5,45.1-20.6s62.1-14,65.1-14c3,0,35.6,9.2,37.9,15c2.3,5.7,5.1,13.2,6.9,14.4
			s9.3,11.7,10.1,19.2c0.8,7.5-11,59.6-12.3,64.1c-1.2,4.5-16.8,53.4-17.3,55c-0.4,1.6-28.5,6.3-28.5,6.3s2.6-46.8,4.3-62.8
			s12.9-54.4,16.3-58.6c-5.8,1.8-20.5,5-23.7,6s-55.4,11.5-66.4,11.2c-11-0.4-49.6-19.7-49-23.2
			C571.5,552.2,582.4,543.7,582.4,543.7z"/>
		<g>
			<path class="st4" d="M599.4,537.3c0,0,71.3-29.8,97.3-24c26,5.8,31.1,18.3,31.2,23c0,4.7-3.7,6.3-4.2,9s-1.4,6.8-1.4,7.5
				c0,0.8-15.9,9.1-18.2,9.1c-2.2,0-74.9,7.8-75.7,7.8s-37.9-10-41.6-11.7C583.1,556.4,569.2,548.6,599.4,537.3z"/>
			<path class="st4" d="M729.2,545.3c0,0-3.5,2.1-3.2,4.8c0.3,2.7-3.7,8-3.7,8s-10.7,1-15.6,16.7S688,681.1,688.2,684.4
				c0.3,3.2,10.6,9.2,11.6,9.2c1,0,15.2-4.6,16.2-9.4S743.3,590,742.8,567c-0.4-23-7.5-28.7-9-28.5
				C732.4,538.8,729.2,545.3,729.2,545.3z"/>
			<path class="st4" d="M689.3,691.6c0,0,16.8,3.6,15.8,7.1s-38.7,8-50.5,2.6s-12.8-6.6-11.3-7.4c1.5-0.8,18.8,2.1,22.3,1.6"/>
		</g>
	</g>
	<g>
		<path class="st3" d="M536.2,573.7c1.6,1.4,57.2,35.1,78.4,34.4s28.6-4.9,28.6-4.9s-28.2-1.8-58.1,46.9c0,0-14,21.1-17.2,24.6
			c-3.2,3.5-9.3,6-9.1,10.4c0.2,4.4,19,11.3,19.3,13.3c0.3,2,1.3,4.8,1.9,3.4c0.6-1.4,51.4-55.1,53.9-56
			c2.5-0.9,38.9-33.5,40.2-42.6c1.3-9.2,0-17.7-2-19.2c-2-1.5-34.3-13.6-43.8-14.3c-9.5-0.8-71.5-19.1-74.2-19.6s-12.7-1.1-15.2,1.3
			C536.6,554,532,570,536.2,573.7z"/>
		<g>
			<path class="st4" d="M546,551.5c0,0-3.5-4.8-8.3-4.7s-9.7,8.8-9.7,8.8s3,9,4.1,10.5c1.2,1.5,6.2,8.3,7.7,7.6
				c1.5-0.8,59.3,33.7,86.3,31c27-2.7,27.2-9,27.2-9s0.7-4.5,3.2-6.8c2.5-2.3,8.5-2.6,8.5-2.6s3.5-0.3,3.5-1
				C668.5,584.5,565,550.4,546,551.5z"/>
			<path class="st4" d="M660.5,593.8c4.2-2.5,8,0.7,8,0.7s2.3,8.5,0.1,11c-2.2,2.5-28.7,36-34,36.8c-5.2,0.8-23.6,23.4-23.6,23.4
				s-31.2,38.5-35.2,38.3c-4-0.2-7.1-11.4-7.1-11.4l-8.5-1.9c0,0-5.1-7.2,3.7-11.8c8.7-4.6,28.7-33.7,28.7-33.7s22.3-30.9,40.5-36.8
				S660.5,593.8,660.5,593.8z"/>
			<path class="st4" d="M558.9,693.6c0,0,6.6-4.8,7.2-0.1c0.5,4.7,0.1,7.7,0.1,8.7c0,1-34.1,14.8-50.4,9.4c0,0-0.3-1.7,2.5-2.3
				C520.9,708.9,555,693.1,558.9,693.6z"/>
		</g>
	</g>
	<g>
		<path class="st3" d="M370.7,518.8c0,0-15.5,12.8-20.5,13c-5,0.2-113.4-35-121.8-43.4c-8.4-8.4,2.3-17,2.3-17s-7.5,15.9-10.1,19.3
			c-2.6,3.3-29.9,41.2-34.3,44.1s-12.6,12.7-12.6,12.7s-9-20.2-14.8-18.8c-5.8,1.4-8-2.6-8-2.6s44.7-61.7,54.5-64.9
			c9.8-3.2,17.1-5,18.1-6c1-1,2-3,3.3-4.4c1.3-1.4,5.8-2,7.3-2c1.5,0,52.6,19.1,54.5,23.3s16.3,11.5,16.3,11.5s62.3,28.5,64.1,29.2
			C370.7,513.3,370.7,518.8,370.7,518.8z"/>
		<g>
			<path class="st4" d="M227.3,461.6c0,0-19.3-1.2-24.2,2.8c-5,4-56,64.6-55.7,73.3c0.3,8.7,6,3.9,6,3.9s4.2-4,6.2-2.8
				c2,1.2,4.6,7.5,4.8,10.2c0.3,2.7,4,3.5,5,3c1-0.5,58.5-68.4,60.6-82.7C232.2,455.1,227.3,461.6,227.3,461.6z"/>
			<path class="st4" d="M225.5,457.6c0,0-0.1-7.2,5-7s21.5,6.8,21.5,6.8s86.9,45.8,94.6,45c7.7-0.8,26.2-10.3,26.2-10.3l-1.5,15
				l-10,15.7c0,0-15,6.1-18.7,6.8c-3.7,0.7-113.3-39.6-113.8-42.9c-0.5-3.3,4.9-19.5,5.1-22.5c0.2-3.1-4.1-7-5.1-7
				C227.7,457.1,225.5,457.6,225.5,457.6z"/>
			<path class="st4" d="M149.9,548c0,0-0.8-6.3,3.5-6.3s6.2-0.3,7,3.1c0.8,3.4-0.1,16.1,0.1,18.5s-2.6,13.2-0.6,17.2
				c2,4,2.3,6.2,2.3,6.2S147.6,576,149.9,548z"/>
		</g>
	</g>
	<g>
		<path class="st3" d="M292.4,514.8c0,0-12.3,14.4-12.1,18.9c0.3,4.6,0.9,21.7,0.9,21.7l39.5-8.4c0,0,0.1-15.7-0.2-19.8
			s-11.5-14.7-11.5-14.7L292.4,514.8z"/>
		<path class="st4" d="M319.8,562.9c0,0-1-2-4.7,0c-3.7,2-7.4,9.1-7.4,11.1c0,2,7.1,43.9,7.6,47.7c0.5,3.7,0.5,5.5,3.1,7.7
			c2.5,2.2,5.8,3.7,8.3,1.9C329.1,629.6,318.8,564.4,319.8,562.9z"/>
		<path class="st3" d="M365.7,479.6l-1,4.1c0,0-24.3-11.2-28.4-9.6c-4.1,1.6-11.4-2.4-11.6-3.1s-12-6.6-13.3-6.4s-10.3,3.7-11.3,7.3
			c-1,3.5-10.1,29.2-9.7,36.2c0.4,7,5.1,16.1,5.1,16.1s10.5,2.1,13.7,1.6c9-1.6,16-20.8,16.8-26c0,0,2.2,9.3,16.8,11.5
			c3.3,0.5,27.2,5.2,27.8,1.9c0.7-3.3,1.6-3.4,1.6-3.4l16.4-12.1c0,0,8-15.9,6.1-19.2c-1.9-3.3-15.1-6.6-19.3-6.4
			C371.3,472.4,365.7,479.6,365.7,479.6z"/>
		<path class="st4" d="M296.4,515.1c0,0-0.5,3.8,3.3,5.5c3.8,1.7,7.8,0.4,10-0.1c2.2-0.5,7,5.9,7,5.9s6.2,27.7,4.7,31.5
			s-5,1-7.7,1.3c-2.7,0.3-8.4,10.1-8.4,10.1l-0.2,5.8l-1,3.5c0,0-2.8-2.5-4.8-1.7c-2,0.8-5.8,33.3-2.2,42.3c3.6,9,5.9,13.7,3.4,14.2
			c-2.5,0.5-6-1-6.8-1.2c-0.8-0.2-8.9-22.4-9.2-26.7s-2-68.3,0.9-75.4c2.9-7.1,7.9-14.9,7.9-14.9S294.4,514.4,296.4,515.1z"/>
		<path class="st4" d="M325.8,471.6c0,0,5.1,5.7,13.1,4.7c8-1.1,26.6,10.4,26.6,10.4s10.5-6.5,12.9-7.2s5.7-3.3,9.1-1.1
			c3.4,2.2,2.5,10.3,2.5,10.3s-5.1,11.3-7.7,11s-6.6,1.7-8.4,4.1c-2.6,3.4-2.6,3.4-2.6,3.4s0.2,4.9-4.3,4.7s-35-3.7-37.3-9
			c-2.3-5.2-3.7-9.7-3.7-9.7S327.2,473.1,325.8,471.6z"/>
		<path class="st4" d="M306.1,468c0,0,2.4-3,6.1-1.5c3.8,1.5,11.4,6.2,11.7,13.3c0.3,7.1,2.2,13.7-0.6,21.1
			c-2.8,7.4-6.6,15.4-7.6,16.7c-1,1.3-14,2.1-14.3,1.6c-0.3-0.5-2.3-5.7-3.9-6.8c-1.6-1.1-4.1-0.8-4.3-0.5
			C293.2,512.2,292.1,480.7,306.1,468z"/>
	</g>
</g>
<g id="Layer_5">
	<g>
		<path class="st3" d="M632.8,65.5c0.5,2.6,25,2.8,32.1,10.9c7.1,8.1,7.1,8.1,7.1,8.1s41.7,79.4,45.8,91.5
			c4.1,12.1,19.8,76.9,19.9,80.7s-2.2,11-3.7,15.4c-1.5,4.4-8.3,2.7-9.8,2s-23.5-10.3-25.6-13.9c-2.1-3.7-23.3-65.7-21.7-74.5
			c1.6-8.8,0.5-11-0.2-12.9c-0.7-1.9-4.6-2.8-6.2-14.1s-7.6-65.1-6-69.2s-2.7-10-4.2-10.7c-1.5-0.7-7.9-2.2-10.5-1.3
			c-2.5,0.9-3.7,64.7-3.7,64.7s3.4,95.2,9.9,117.3c6.5,22.2,9.7,29.7,11.2,34.1c1.6,4.4,5.7,30.1,3.6,41.1s-7.4,58.9-4.6,64.5
			c2.8,5.6,2.8,5.6,2.8,5.6s16.8,29.6,27.2,35.7c10.4,6.1,30.2,15,44.5,8.4C755,442.2,791,326.2,790.6,316
			c-0.3-10.1-34.4-149.8-57.3-189.4S684.1,60,668.3,56.7c-15.9-3.3-32.1,0.3-34.7,2.5C630.9,61.4,632.8,65.5,632.8,65.5z"/>
		<path class="st4" d="M635.4,63.3c0.4-1.4,9.4-6.5,20.6-5.7c11.6,0.8,41-4.3,92,113.3c0,0,33.4,124.5,34.1,129.8
			c0.7,5.3-11.8,4.1-18.8,1.4c-7-2.7-14-10.5-19.9-13c-5.9-2.5-17.2-7.6-14.8-7.6c7.5,0.2,14-18.1,14.1-21.9s-20.2-96.4-47.9-141.9
			c-20.2-33.2-17.9-35-25.8-41.4c-6.5-5.3-15-10.4-16.4-10.4c-1.4-0.1-16.6,1.2-17-0.7C635.4,63.3,635.4,63.3,635.4,63.3z"/>
		<path class="st4" d="M660.9,91.6c-0.4-4.3-0.8-10-3.8-10.3s-5.6,1.1-5.7,3.7c-0.2,2.6,0.5,137.4,12.5,177.3
			c12.1,39.9,18.5,39,20.6,45.3c2.1,6.4,10.1,8.7,11.7,10.2s6,9.8,4.3,19.5c-1.8,9.7-12.2,41.2-8.4,58.3s14.3,42.5,19.9,44.1
			s20.8,14.9,28.5,1.3s47.1-110.5,46.7-122.7c-0.4-12.2-5.9-9.2-5.9-9.2s-5.5,3-12.2,4.3c-6.7,1.3-17.6-1.1-19-2.3
			c-1.4-1.2-31.4-17.8-32.8-24.4c-1.3-6.5-0.1-10-0.1-10s-15.3-1.5-20.3-11.4c-5-9.9-22.5-62.3-30.4-108S660.9,91.6,660.9,91.6z"/>
	</g>
</g>
<g id="Layer_4" class="st5">
</g>
<g id="Layer_1" class="st5">
</g>
</svg>
